<?xml version="1.0" standalone="no"?>
<!DOCTYPE svg PUBLIC "-//W3C//DTD SVG 20010904//EN"
 "http://www.w3.org/TR/2001/REC-SVG-20010904/DTD/svg10.dtd">
<svg version="1.0" xmlns="http://www.w3.org/2000/svg"
 width="300.000000pt" height="300.000000pt" viewBox="0 0 300.000000 300.000000"
 preserveAspectRatio="xMidYMid meet">
<metadata>
Created by potrace 1.11, written by Peter Selinger 2001-2013
</metadata>
<g transform="translate(0.000000,300.000000) scale(0.100000,-0.100000)"
fill="#000000" stroke="none">
<path d="M1365 2942 c-103 -60 -323 -185 -877 -498 l-318 -179 3 -755 2 -754
280 -159 c154 -87 305 -172 335 -189 30 -17 100 -57 155 -88 55 -31 120 -68
145 -82 25 -14 129 -73 233 -132 l187 -107 175 108 c96 59 205 127 242 151 38
23 75 46 83 50 9 4 80 47 158 96 l142 90 -62 33 c-249 135 -291 155 -311 150
-12 -3 -62 -20 -110 -37 -531 -184 -1078 96 -1249 641 -20 63 -23 95 -23 219
1 121 4 158 23 223 59 199 116 292 276 450 106 105 208 169 339 216 103 36
164 46 292 45 273 -2 477 -81 673 -260 168 -152 256 -332 269 -550 l6 -101
186 -90 c102 -50 187 -90 188 -89 5 3 16 906 11 910 -1 2 -28 17 -58 33 -54
30 -67 38 -180 100 -213 118 -1015 561 -1057 584 -29 16 -53 29 -55 29 -2 0
-48 -26 -103 -58z"/>
<path d="M1831 2219 c-30 -40 -132 -114 -200 -145 -47 -22 -147 -51 -233 -69
-22 -4 -62 -65 -274 -417 -136 -227 -254 -423 -261 -435 -14 -20 -8 -25 173
-138 179 -111 188 -116 204 -98 9 10 65 93 125 186 59 92 111 170 116 173 4 2
99 -47 211 -109 212 -119 254 -142 353 -197 33 -18 65 -36 70 -40 6 -4 39 -23
75 -42 94 -51 155 -85 240 -134 41 -23 100 -56 130 -72 l54 -30 107 53 106 54
-3 58 c-3 32 -6 87 -8 123 -2 36 -5 68 -5 72 -1 4 -56 39 -123 78 -68 39 -130
75 -138 80 -8 5 -88 52 -178 104 -90 53 -166 96 -168 96 -3 0 -17 8 -32 19
-15 10 -92 56 -172 101 -80 46 -172 100 -205 120 -33 20 -68 39 -77 43 -23 8
-23 24 0 62 10 17 34 59 54 95 54 99 86 155 149 267 l58 103 -31 16 c-18 9
-46 25 -64 34 l-32 18 -21 -29z"/>
</g>
</svg>
